<?xml version="1.0" encoding="utf-8"?>
<!-- Generator: Adobe Illustrator 22.1.0, SVG Export Plug-In . SVG Version: 6.00 Build 0)  -->
<svg version="1.1" id="Layer_1" xmlns="http://www.w3.org/2000/svg" xmlns:xlink="http://www.w3.org/1999/xlink" x="0px" y="0px"
	 viewBox="0 0 419.8 152.6" style="enable-background:new 0 0 419.8 152.6;" xml:space="preserve">
<style type="text/css">
	.st0{fill:#6F7271;}
	.st1{fill:#0075C9;}
	.st2{fill:#185A7D;}
	.st3{fill:#E65300;}
	.st4{fill:#B12028;}
</style>
<title>USLS-logo_PMS_Coated</title>
<g id="Layer_1_1_">
	<path class="st0" d="M195.3,60.9c0,10.9-6.4,16.7-18.5,16.7s-18.5-5.8-18.5-16.7V34.7h5.9v23.8c0,9.2,3.9,13.5,12.6,13.5
		s12.6-4.3,12.6-13.5V34.7h5.9V60.9z"/>
	<path class="st0" d="M196.5,69.6h7v7h-7V69.6z"/>
	<path class="st0" d="M212.4,62.4c0.2,6.6,4.5,9.7,13.2,9.7c7.5,0,11.6-2.7,11.6-7.1c0-3.5-2.3-5-7.2-5.9l-10.4-1.9
		c-8.2-1.4-12.1-4.8-12.1-11.1c0-7.9,6.1-12.7,17.7-12.7c10.7,0,16.6,4.8,16.7,13.3H236c-0.4-5.4-4-7.8-11.3-7.8s-11,2.4-11,6.7
		c0,3.4,2.4,4.7,7.4,5.7l9.2,1.8c8.8,1.7,13,4.3,13,11.4c0,8.1-6.4,13.1-18.2,13.1c-12.5,0-18.9-5.2-19.1-15.3L212.4,62.4z"/>
	<path class="st0" d="M244.9,69.6h7v7h-7V69.6z"/>
	<path class="st0" d="M267.1,34.7h5.9v36.3h25.6v5.6h-31.6V34.7z"/>
	<path class="st0" d="M306,62.4c0,5.9,4.5,10,11.1,10c4.9,0,8.6-2.1,9.9-5.5h6.5c-2.2,6.7-8.2,10.8-16.4,10.8
		c-10.4,0-17-6.6-17-16.6s6.7-16.6,17-16.6c10.6,0,16.9,6.3,16.9,16.6v1.1H306V62.4z M328,58.1c-0.9-5.2-4.9-8.5-10.9-8.5
		s-10,3.2-11,8.5H328z"/>
	<path class="st0" d="M353.9,87.6c-9,0-14.2-3.6-14.9-10h6.3c0.6,3.4,3.4,5,8.6,5c8.5,0,11.7-2.7,11.7-9.5v-1c-3,3.5-7.4,5.5-12,5.3
		C343.8,77.3,337,70.7,337,61s6.8-16.3,16.5-16.3c5.5,0,9.6,2,12.1,5.8v-5h5.6v27C371.2,83,366,87.6,353.9,87.6z M354.4,72.4
		c7.1,0,11.6-4.3,11.6-11.3s-4.5-11.3-11.6-11.3s-11.5,4.3-11.5,11.4S347.3,72.4,354.4,72.4L354.4,72.4z"/>
	<path class="st0" d="M387.4,77.3c-7.8,0-12-3.5-12-9.3c0-3.2,1.7-6.1,4.5-7.5c1.9-1.1,5.2-1.6,10-2.1c6.9-0.8,10.3-0.6,10.3-4.3
		c0-3.4-2.4-4.7-8.1-4.7c-6.3,0-9.2,1.7-9.5,6.1h-5.9c0.4-7.3,5.5-11,15-11c10.3,0,14.2,2.7,14.2,10.3v12.6c0,3.3,0.6,4.6,2.8,4.6
		c0.5,0,1.1-0.1,1.6-0.2v4.5c-1.4,0.2-2.9,0.3-4.4,0.3c-3.3,0-4.9-1.4-5.5-4.8C397.6,75.3,393.1,77.3,387.4,77.3z M390.9,62.7
		c-6,0.7-9.3,1.2-9.3,5c0,3,2.4,4.8,6.8,4.8c7.2,0,11.9-3.4,11.9-7.3v-4.6C398.6,61.6,395.5,62.2,390.9,62.7z"/>
	<path class="st0" d="M414.2,34.7h5.6v41.9h-5.6V34.7z"/>
	<path class="st0" d="M164.6,127.4c0.2,6.6,4.5,9.7,13.2,9.7c7.5,0,11.6-2.7,11.6-7.1c0-3.5-2.3-5.1-7.2-5.9l-10.4-1.9
		c-8.2-1.4-12.1-4.8-12.1-11.1c0-7.9,6.1-12.7,17.7-12.7c10.7,0,16.6,4.8,16.7,13.3h-5.9c-0.4-5.4-4-7.8-11.3-7.8s-11,2.4-11,6.7
		c0,3.4,2.4,4.7,7.4,5.7l9.2,1.8c8.8,1.7,13,4.4,13,11.4c0,8.1-6.4,13.1-18.1,13.1c-12.5,0-18.9-5.2-19.1-15.3H164.6z"/>
	<path class="st0" d="M229.8,141.5h-5.6v-5.3c-3,4-7.8,6.3-12.8,6.1c-4.1,0-7.3-1.3-9.3-3.6c-2.3-2.6-2.4-5.9-2.4-10.5v-17.8h5.6v18
		c0,6.3,1.9,9,7.4,9c6.6,0,11.5-4.4,11.5-11.3v-15.7h5.6L229.8,141.5z"/>
	<path class="st0" d="M235.2,110.5h5.6v4.6c2.9-3.6,7.4-5.6,12-5.4c9.8,0,16.6,6.6,16.6,16.3s-6.9,16.2-16.7,16.2
		c-4.6,0.2-9-1.8-11.9-5.3v15.6h-5.6V110.5z M252.2,137.2c7,0,11.4-4.2,11.4-11.1s-4.4-11.1-11.4-11.1s-11.4,4.2-11.4,11.1
		S245.2,137.2,252.2,137.2L252.2,137.2z"/>
	<path class="st0" d="M272.9,110.5h5.6v4.6c2.9-3.6,7.4-5.6,12-5.4c9.8,0,16.6,6.6,16.6,16.3s-6.9,16.2-16.7,16.2
		c-4.6,0.2-9-1.8-11.9-5.3v15.6h-5.6V110.5z M289.9,137.2c7,0,11.4-4.2,11.4-11.1s-4.4-11.1-11.4-11.1s-11.4,4.2-11.4,11.1
		S282.9,137.2,289.9,137.2L289.9,137.2z"/>
	<path class="st0" d="M327,109.5c10.7,0,17.4,6.6,17.4,16.6s-6.7,16.6-17.4,16.6s-17.4-6.6-17.4-16.6S316.3,109.5,327,109.5z
		 M327,137.4c7.1,0,11.5-4.3,11.5-11.3s-4.4-11.3-11.5-11.3s-11.5,4.4-11.5,11.4S319.9,137.4,327,137.4z"/>
	<path class="st0" d="M347.6,110.5h5.6v5.2c2.5-3.9,6.8-6.3,11.4-6.3c0.9-0.1,1.7,0.1,2.5,0.5v5.9c-1.3-0.4-2.6-0.6-4-0.6
		c-5.3,0-9.9,4.5-9.9,11.1v15.2h-5.6L347.6,110.5z"/>
	<path class="st0" d="M385.2,137.5c1.3,0,2.5-0.2,3.8-0.5v5.1c-1.7,0.3-3.4,0.5-5.2,0.5c-5.5,0-8.1-2.3-8.1-7.1v-20.1h-5.4v-4.9h5.4
		v-7.9h5.6v7.9h7.6v4.9h-7.6v18.5C381.4,136.5,382.4,137.5,385.2,137.5z"/>
</g>
<g id="Layer_2_1_">
	<path class="st1" d="M144,88L90.3,36.8c-1.6-1.4-3.7-2.2-5.9-2.1c-2.3,0-4.4,1-6,2.5l0,0L65,51.3L103.5,88H144z"/>
	<path class="st2" d="M103.5,88l-38.8,37l13.4,14.1l0,0c1.6,1.6,3.7,2.5,6,2.6c2.2,0.1,4.3-0.7,5.9-2.1L144,88H103.5z"/>
	<path class="st3" d="M0,53.4L53.7,2.1C55.4,0.7,57.5,0,59.6,0c2.3,0.1,4.4,1,6,2.6l0,0L79,16.6L40.5,53.4H0z"/>
	<path class="st4" d="M40.5,53.4l38.8,37l-13.4,14.1l0,0c-1.6,1.6-3.7,2.5-6,2.6c-2.2,0.1-4.3-0.7-5.9-2.1L0,53.4H40.5z"/>
</g>
</svg>
