<?xml version="1.0" encoding="utf-8"?>
<!-- Generator: Adobe Illustrator 15.0.0, SVG Export Plug-In . SVG Version: 6.00 Build 0)  -->
<!DOCTYPE svg PUBLIC "-//W3C//DTD SVG 1.1//EN" "http://www.w3.org/Graphics/SVG/1.1/DTD/svg11.dtd">
<svg version="1.1" id="Layer_1" xmlns="http://www.w3.org/2000/svg" xmlns:xlink="http://www.w3.org/1999/xlink" x="0px" y="0px"
	 width="228px" height="58px" viewBox="0 69 228 58" enable-background="new 0 69 228 58" xml:space="preserve">
<rect y="69" fill="#FFFFFF" width="228" height="58"/>
<g>
	<g id="Layer_1_1_">
		<path fill="#6F7271" d="M64.36,89.068c0,3.593-2.11,5.504-6.097,5.504c-3.988,0-6.097-1.911-6.097-5.504v-8.634h1.944v7.843
			c0,3.033,1.286,4.449,4.153,4.449c2.867,0,4.152-1.416,4.152-4.449v-7.843h1.945V89.068z"/>
		<path fill="#6F7271" d="M64.755,91.936h2.308v2.308h-2.308V91.936z"/>
		<path fill="#6F7271" d="M69.994,89.563c0.066,2.175,1.484,3.196,4.351,3.196c2.472,0,3.823-0.89,3.823-2.34
			c0-1.153-0.758-1.647-2.373-1.944l-3.428-0.626c-2.701-0.462-3.987-1.582-3.987-3.658c0-2.604,2.01-4.186,5.833-4.186
			c3.525,0,5.471,1.582,5.503,4.384h-1.943c-0.132-1.78-1.319-2.571-3.724-2.571c-2.406,0-3.625,0.791-3.625,2.208
			c0,1.121,0.79,1.549,2.438,1.879l3.032,0.593c2.899,0.561,4.283,1.417,4.283,3.757c0,2.669-2.109,4.317-5.998,4.317
			c-4.119,0-6.229-1.714-6.294-5.042L69.994,89.563z"/>
		<path fill="#6F7271" d="M80.705,91.936h2.307v2.308h-2.307V91.936z"/>
		<path fill="#6F7271" d="M88.021,80.435h1.944v11.962h8.437v1.847H87.988V80.435H88.021z"/>
		<path fill="#6F7271" d="M100.84,89.563c0,1.944,1.483,3.295,3.658,3.295c1.614,0,2.834-0.692,3.262-1.813h2.143
			c-0.725,2.208-2.702,3.559-5.404,3.559c-3.428,0-5.603-2.174-5.603-5.47c0-3.295,2.208-5.471,5.603-5.471
			c3.493,0,5.569,2.076,5.569,5.471v0.362h-9.228V89.563z M108.09,88.146c-0.297-1.713-1.615-2.801-3.592-2.801
			c-1.978,0-3.295,1.055-3.625,2.801H108.09z"/>
		<path fill="#6F7271" d="M116.625,97.867c-2.966,0-4.68-1.186-4.91-3.295h2.076c0.197,1.12,1.12,1.647,2.834,1.647
			c2.802,0,3.855-0.89,3.855-3.131V92.76c-0.988,1.153-2.438,1.813-3.954,1.747c-3.229-0.033-5.471-2.208-5.471-5.404
			c0-3.197,2.241-5.373,5.438-5.373c1.813,0,3.164,0.66,3.987,1.912v-1.647h1.846v8.897
			C122.326,96.352,120.612,97.867,116.625,97.867z M116.79,92.858c2.34,0,3.822-1.417,3.822-3.724s-1.482-3.724-3.822-3.724
			S113,86.828,113,89.168S114.45,92.858,116.79,92.858L116.79,92.858z"/>
		<path fill="#6F7271" d="M127.665,94.474c-2.571,0-3.954-1.154-3.954-3.065c0-1.055,0.56-2.01,1.482-2.471
			c0.626-0.362,1.714-0.527,3.296-0.692c2.273-0.265,3.394-0.198,3.394-1.417c0-1.121-0.791-1.549-2.669-1.549
			c-2.076,0-3.032,0.561-3.131,2.01h-1.944c0.132-2.405,1.813-3.625,4.943-3.625c3.394,0,4.679,0.89,4.679,3.395v4.152
			c0,1.088,0.198,1.516,0.923,1.516c0.165,0,0.363-0.033,0.527-0.065v1.482c-0.461,0.065-0.955,0.1-1.45,0.1
			c-1.087,0-1.614-0.462-1.813-1.582C131.025,93.814,129.543,94.474,127.665,94.474z M128.818,89.662
			c-1.978,0.23-3.064,0.396-3.064,1.648c0,0.988,0.79,1.581,2.24,1.581c2.373,0,3.922-1.12,3.922-2.406V88.97
			C131.355,89.3,130.334,89.497,128.818,89.662z"/>
		<path fill="#6F7271" d="M136.496,80.435h1.846v13.809h-1.846V80.435z"/>
		<path fill="#6F7271" d="M54.243,110.983c0.065,2.175,1.483,3.197,4.35,3.197c2.471,0,3.822-0.891,3.822-2.341
			c0-1.152-0.758-1.68-2.372-1.944l-3.428-0.626c-2.702-0.461-3.987-1.582-3.987-3.658c0-2.603,2.01-4.185,5.833-4.185
			c3.526,0,5.471,1.582,5.503,4.383H62.02c-0.132-1.779-1.318-2.57-3.724-2.57c-2.405,0-3.625,0.791-3.625,2.208
			c0,1.12,0.792,1.549,2.439,1.878l3.032,0.594c2.9,0.561,4.284,1.45,4.284,3.757c0,2.669-2.109,4.316-5.964,4.316
			c-4.119,0-6.229-1.714-6.294-5.042h2.076V110.983z"/>
		<path fill="#6F7271" d="M75.729,115.63h-1.846v-1.746c-0.988,1.317-2.57,2.075-4.217,2.01c-1.352,0-2.406-0.428-3.065-1.187
			c-0.758-0.856-0.791-1.944-0.791-3.46v-5.866h1.846v5.932c0,2.076,0.626,2.966,2.438,2.966c2.175,0,3.789-1.449,3.789-3.724
			v-5.174h1.846V115.63z"/>
		<path fill="#6F7271" d="M77.508,105.414h1.846v1.516c0.956-1.186,2.438-1.846,3.955-1.779c3.229,0,5.47,2.175,5.47,5.372
			c0,3.196-2.273,5.339-5.503,5.339c-1.516,0.065-2.966-0.594-3.922-1.747v5.141h-1.846V105.414z M83.11,114.213
			c2.307,0,3.757-1.384,3.757-3.658c0-2.273-1.45-3.657-3.756-3.657c-2.308,0-3.758,1.384-3.758,3.657
			C79.354,112.829,80.804,114.213,83.11,114.213L83.11,114.213z"/>
		<path fill="#6F7271" d="M89.933,105.414h1.846v1.516c0.955-1.186,2.438-1.846,3.954-1.779c3.229,0,5.471,2.175,5.471,5.372
			c0,3.196-2.274,5.339-5.504,5.339c-1.517,0.065-2.966-0.594-3.921-1.747v5.141h-1.846V105.414z M95.534,114.213
			c2.307,0,3.757-1.384,3.757-3.658c0-2.273-1.45-3.657-3.757-3.657s-3.756,1.384-3.756,3.657
			C91.778,112.829,93.228,114.213,95.534,114.213L95.534,114.213z"/>
		<path fill="#6F7271" d="M107.76,105.084c3.526,0,5.734,2.176,5.734,5.471c0,3.296-2.208,5.471-5.734,5.471
			c-3.525,0-5.733-2.175-5.733-5.471C102.026,107.26,104.234,105.084,107.76,105.084z M107.76,114.278
			c2.341,0,3.791-1.417,3.791-3.724s-1.45-3.724-3.791-3.724c-2.339,0-3.789,1.45-3.789,3.757
			C103.971,112.896,105.421,114.278,107.76,114.278z"/>
		<path fill="#6F7271" d="M114.549,105.414h1.846v1.714c0.824-1.286,2.24-2.076,3.757-2.076c0.297-0.033,0.56,0.032,0.824,0.165
			v1.944c-0.429-0.132-0.857-0.198-1.318-0.198c-1.747,0-3.263,1.483-3.263,3.658v5.009h-1.846V105.414z"/>
		<path fill="#6F7271" d="M126.939,114.312c0.429,0,0.824-0.065,1.253-0.165v1.682c-0.561,0.099-1.121,0.164-1.714,0.164
			c-1.813,0-2.67-0.758-2.67-2.339v-6.624h-1.778v-1.615h1.778v-2.604h1.846v2.604h2.505v1.615h-2.505v6.097
			C125.688,113.981,126.017,114.312,126.939,114.312z"/>
	</g>
	<g id="Layer_2_1_">
		<path fill="#0075C9" d="M47.454,98L29.757,81.127c-0.527-0.461-1.219-0.726-1.944-0.692c-0.758,0-1.45,0.33-1.978,0.824l0,0
			l-4.416,4.646L34.108,98H47.454z"/>
		<path fill="#185A7D" d="M34.108,98l-12.786,12.192l4.416,4.646l0,0c0.526,0.527,1.219,0.824,1.977,0.857
			c0.725,0.032,1.417-0.23,1.945-0.692L47.454,98H34.108z"/>
		<path fill="#E65300" d="M0,86.598l17.696-16.906C18.257,69.23,18.949,69,19.64,69c0.759,0.033,1.45,0.329,1.978,0.856l0,0
			l4.416,4.613L13.346,86.598H0z"/>
		<path fill="#B12028" d="M13.346,86.598L26.133,98.79l-4.416,4.646l0,0c-0.528,0.527-1.22,0.824-1.978,0.857
			c-0.725,0.032-1.417-0.23-1.945-0.692L0,86.598H13.346z"/>
	</g>
</g>
</svg>
